<svg width="65" height="64" viewBox="0 0 65 64" fill="none" xmlns="http://www.w3.org/2000/svg">
<path d="M64 32C64 49.6731 49.6731 64 32 64C14.3269 64 0 49.6731 0 32C0 14.3269 14.3269 0 32 0C49.6731 0 64 14.3269 64 32Z" fill="#D0BCFF"/>
<path fill-rule="evenodd" clip-rule="evenodd" d="M40.3008 50.0503H25.1587V45.9625H40.3008V50.0503ZM40.5267 31.1191H24.9358V28.8265H40.5267V31.1191ZM55.3358 30.3212H49.5453V24.1455H55.3358V30.3212ZM55.8917 21.5551H49.5453V17.3714H24.6C22.2143 17.3732 20.1702 18.1348 18.4678 19.6562C16.7654 21.1777 15.9142 23.0066 15.9142 25.1429V29.3239C15.9162 31.4636 16.7674 33.2942 18.4678 34.8157C20.1683 36.3372 22.2124 37.0979 24.6 37.0979H26.9393V43.3721H22.2635V52.6408L43.1961 52.6382V43.3721H38.5203V37.1005H49.5453V32.9117H55.8917L58.231 30.8212V28.5286H64.5774V25.9382H58.231V23.6482L55.8917 21.5551ZM35.625 43.3721H29.8346V34.5074H24.6C23.0095 34.5057 21.6468 33.998 20.5119 32.9842C19.377 31.9705 18.8095 30.7513 18.8095 29.3265V25.1403C18.8095 23.7172 19.377 22.498 20.5119 21.4825C21.6468 20.4671 23.0105 19.9593 24.6029 19.9593H46.6501V34.5074H35.625V43.3721Z" fill="black"/>
</svg>
