<svg width="133" height="32" viewBox="0 0 133 32" fill="none" xmlns="http://www.w3.org/2000/svg">
<path d="M5 5C5 2.23858 7.23858 0 10 0H128C130.761 0 133 2.23858 133 5V27C133 29.7614 130.761 32 128 32H10C7.23858 32 5 29.7614 5 27V5Z" fill="#D3C1FF"/>
<path d="M40.0703 14.7422H35.3203V18.7734H40.8594V20H33.875V8.625H40.7891V9.85938H35.3203V13.5156H40.0703V14.7422ZM46.9141 14.6797L49.1719 11.5469H50.8672L47.7188 15.7266L50.9531 20H49.2812L46.9453 16.7812L44.6094 20H42.9219L46.1562 15.7266L43.0078 11.5469H44.6797L46.9141 14.6797ZM53.0234 23.25V11.5469H54.3438L54.4141 12.4688C54.5286 12.3229 54.6536 12.1927 54.7891 12.0781C54.9245 11.9583 55.0703 11.8568 55.2266 11.7734C55.4453 11.6484 55.6875 11.5547 55.9531 11.4922C56.224 11.4245 56.513 11.3906 56.8203 11.3906C57.362 11.3906 57.8411 11.4974 58.2578 11.7109C58.6745 11.9245 59.0234 12.2214 59.3047 12.6016C59.5859 12.9818 59.7995 13.4375 59.9453 13.9688C60.0911 14.4948 60.1641 15.0729 60.1641 15.7031V15.8672C60.1641 16.4714 60.0911 17.0365 59.9453 17.5625C59.7995 18.0833 59.5859 18.5365 59.3047 18.9219C59.0234 19.3073 58.6745 19.6094 58.2578 19.8281C57.8464 20.0469 57.375 20.1562 56.8438 20.1562C56.5208 20.1562 56.2188 20.1224 55.9375 20.0547C55.6615 19.987 55.4115 19.8906 55.1875 19.7656C55.0521 19.6875 54.9245 19.6016 54.8047 19.5078C54.6849 19.4089 54.5729 19.3021 54.4688 19.1875V23.25H53.0234ZM58.7188 15.7031C58.7188 15.2917 58.6719 14.901 58.5781 14.5312C58.4896 14.1562 58.3516 13.8255 58.1641 13.5391C57.9714 13.2578 57.7292 13.0339 57.4375 12.8672C57.1458 12.7005 56.7969 12.6172 56.3906 12.6172C56.1667 12.6172 55.9583 12.6432 55.7656 12.6953C55.5781 12.7474 55.4089 12.8229 55.2578 12.9219C55.0911 13.0208 54.9427 13.1432 54.8125 13.2891C54.6823 13.4349 54.5677 13.5964 54.4688 13.7734V17.8438C54.5573 18 54.6589 18.1458 54.7734 18.2812C54.888 18.4167 55.0182 18.5312 55.1641 18.625C55.3307 18.7344 55.5156 18.8203 55.7188 18.8828C55.9271 18.9453 56.1562 18.9766 56.4062 18.9766C56.8073 18.9766 57.1536 18.8932 57.4453 18.7266C57.737 18.5547 57.9766 18.3255 58.1641 18.0391C58.3516 17.7526 58.4896 17.4219 58.5781 17.0469C58.6719 16.6719 58.7188 16.2786 58.7188 15.8672V15.7031ZM66.375 20.1562C65.7812 20.1562 65.2344 20.0547 64.7344 19.8516C64.2396 19.6484 63.8151 19.3646 63.4609 19C63.1068 18.6354 62.8307 18.2031 62.6328 17.7031C62.4349 17.2031 62.3359 16.6589 62.3359 16.0703V15.7422C62.3359 15.0599 62.4453 14.4505 62.6641 13.9141C62.8828 13.3724 63.1745 12.9141 63.5391 12.5391C63.8984 12.1693 64.3073 11.8854 64.7656 11.6875C65.2292 11.4896 65.7031 11.3906 66.1875 11.3906C66.7969 11.3906 67.3281 11.4974 67.7812 11.7109C68.2396 11.9193 68.6198 12.2083 68.9219 12.5781C69.224 12.9531 69.4479 13.3932 69.5938 13.8984C69.7448 14.4036 69.8203 14.9505 69.8203 15.5391V16.1875H63.7812V16.2422C63.8177 16.6536 63.8984 17.0156 64.0234 17.3281C64.1536 17.6406 64.3307 17.9167 64.5547 18.1562C64.7839 18.4115 65.0599 18.612 65.3828 18.7578C65.7057 18.9036 66.0625 18.9766 66.4531 18.9766C66.9688 18.9766 67.4271 18.8724 67.8281 18.6641C68.2292 18.4557 68.5625 18.1797 68.8281 17.8359L69.7109 18.5234C69.4297 18.9505 69.0078 19.3307 68.4453 19.6641C67.888 19.9922 67.1979 20.1562 66.375 20.1562ZM66.1875 12.5781C65.8958 12.5781 65.6198 12.6328 65.3594 12.7422C65.099 12.8464 64.8646 13 64.6562 13.2031C64.4479 13.4115 64.2708 13.6667 64.125 13.9688C63.9844 14.2656 63.8854 14.6094 63.8281 15H68.375V14.9297C68.375 14.6693 68.3255 14.3906 68.2266 14.0938C68.1276 13.7917 67.9896 13.5312 67.8125 13.3125C67.6354 13.0938 67.4115 12.9167 67.1406 12.7812C66.875 12.6458 66.5573 12.5781 66.1875 12.5781ZM77.7891 11.3906C78.0547 11.3906 78.3307 11.4089 78.6172 11.4453C78.9089 11.4818 79.1276 11.5312 79.2734 11.5938L79.0781 13.0078C78.7969 12.9453 78.5286 12.901 78.2734 12.875C78.0234 12.8438 77.7604 12.8281 77.4844 12.8281C77.1302 12.8281 76.8099 12.8724 76.5234 12.9609C76.237 13.0443 75.987 13.1693 75.7734 13.3359C75.5807 13.4818 75.4115 13.6615 75.2656 13.875C75.125 14.0833 75.0078 14.3177 74.9141 14.5781V20H73.4609V11.5469H74.8359L74.8984 12.6797L74.9062 12.8906C75.25 12.4271 75.6615 12.0625 76.1406 11.7969C76.625 11.526 77.1745 11.3906 77.7891 11.3906ZM85.2812 9.5V11.5469H88.5V12.6641H85.2812V17.2578C85.2812 17.5859 85.3229 17.8568 85.4062 18.0703C85.4896 18.2839 85.6042 18.4531 85.75 18.5781C85.8958 18.7083 86.0625 18.7995 86.25 18.8516C86.4427 18.9036 86.6458 18.9297 86.8594 18.9297C87.0156 18.9297 87.1771 18.9219 87.3438 18.9062C87.5104 18.8854 87.6745 18.862 87.8359 18.8359C87.9922 18.8099 88.138 18.7839 88.2734 18.7578C88.4141 18.7266 88.5286 18.7005 88.6172 18.6797L88.8203 19.7031C88.7005 19.776 88.5547 19.8411 88.3828 19.8984C88.2109 19.9505 88.0234 19.9948 87.8203 20.0312C87.6172 20.0729 87.401 20.1042 87.1719 20.125C86.9479 20.1458 86.724 20.1562 86.5 20.1562C86.125 20.1562 85.7734 20.1042 85.4453 20C85.1224 19.8906 84.8411 19.7188 84.6016 19.4844C84.362 19.2552 84.1719 18.9583 84.0312 18.5938C83.8958 18.224 83.8281 17.7786 83.8281 17.2578V12.6641H81.6094V11.5469H83.8281V9.5H85.2812ZM97.7266 14.7422H92.9766V18.7734H98.5156V20H91.5312V8.625H98.4453V9.85938H92.9766V13.5156H97.7266V14.7422ZM106.633 20C106.576 19.8906 106.529 19.7552 106.492 19.5938C106.461 19.4271 106.438 19.2552 106.422 19.0781C106.276 19.224 106.112 19.362 105.93 19.4922C105.753 19.6224 105.557 19.737 105.344 19.8359C105.125 19.9349 104.893 20.013 104.648 20.0703C104.404 20.1276 104.143 20.1562 103.867 20.1562C103.419 20.1562 103.013 20.0911 102.648 19.9609C102.289 19.8307 101.984 19.6536 101.734 19.4297C101.479 19.2109 101.281 18.9505 101.141 18.6484C101.005 18.3411 100.938 18.0104 100.938 17.6562C100.938 17.1927 101.029 16.7865 101.211 16.4375C101.398 16.0885 101.661 15.7969 102 15.5625C102.339 15.3333 102.745 15.1615 103.219 15.0469C103.698 14.9323 104.232 14.875 104.82 14.875H106.398V14.2109C106.398 13.9557 106.352 13.7266 106.258 13.5234C106.164 13.3203 106.031 13.1458 105.859 13C105.688 12.8594 105.477 12.75 105.227 12.6719C104.982 12.5938 104.706 12.5547 104.398 12.5547C104.112 12.5547 103.854 12.5911 103.625 12.6641C103.401 12.737 103.211 12.8333 103.055 12.9531C102.898 13.0729 102.776 13.2161 102.688 13.3828C102.604 13.5443 102.562 13.7135 102.562 13.8906H101.109C101.115 13.5833 101.193 13.2812 101.344 12.9844C101.5 12.6875 101.724 12.4193 102.016 12.1797C102.302 11.9453 102.651 11.7552 103.062 11.6094C103.479 11.4635 103.951 11.3906 104.477 11.3906C104.956 11.3906 105.401 11.4505 105.812 11.5703C106.224 11.6849 106.581 11.8594 106.883 12.0938C107.18 12.3333 107.414 12.6302 107.586 12.9844C107.758 13.3385 107.844 13.7526 107.844 14.2266V18.1562C107.844 18.4375 107.87 18.737 107.922 19.0547C107.974 19.3672 108.047 19.6406 108.141 19.875V20H106.633ZM104.078 18.8984C104.359 18.8984 104.622 18.862 104.867 18.7891C105.112 18.7161 105.336 18.6198 105.539 18.5C105.737 18.3802 105.909 18.2448 106.055 18.0938C106.201 17.9375 106.315 17.776 106.398 17.6094V15.8984H105.055C104.555 15.8984 104.117 15.9427 103.742 16.0312C103.372 16.1146 103.078 16.2448 102.859 16.4219C102.703 16.5469 102.583 16.6953 102.5 16.8672C102.422 17.0391 102.383 17.2344 102.383 17.4531C102.383 17.6615 102.417 17.8542 102.484 18.0312C102.557 18.2083 102.664 18.3594 102.805 18.4844C102.945 18.6146 103.122 18.7161 103.336 18.7891C103.549 18.862 103.797 18.8984 104.078 18.8984ZM116.305 17.7578C116.305 17.5859 116.271 17.4323 116.203 17.2969C116.135 17.1562 116.021 17.0286 115.859 16.9141C115.698 16.7995 115.484 16.6953 115.219 16.6016C114.953 16.5026 114.622 16.4141 114.227 16.3359C113.742 16.237 113.299 16.1172 112.898 15.9766C112.503 15.8359 112.164 15.6667 111.883 15.4688C111.596 15.276 111.375 15.0495 111.219 14.7891C111.062 14.5234 110.984 14.2161 110.984 13.8672C110.984 13.5234 111.065 13.2031 111.227 12.9062C111.388 12.6042 111.615 12.3411 111.906 12.1172C112.198 11.8932 112.544 11.7161 112.945 11.5859C113.352 11.4557 113.797 11.3906 114.281 11.3906C114.802 11.3906 115.271 11.4583 115.688 11.5938C116.104 11.7292 116.458 11.9167 116.75 12.1562C117.042 12.3958 117.266 12.6771 117.422 13C117.583 13.3177 117.664 13.6615 117.664 14.0312H116.219C116.219 13.849 116.172 13.6719 116.078 13.5C115.984 13.3229 115.854 13.1667 115.688 13.0312C115.521 12.8958 115.318 12.7865 115.078 12.7031C114.844 12.6198 114.578 12.5781 114.281 12.5781C113.974 12.5781 113.703 12.612 113.469 12.6797C113.24 12.7474 113.049 12.8385 112.898 12.9531C112.742 13.0677 112.625 13.2005 112.547 13.3516C112.469 13.5026 112.43 13.6589 112.43 13.8203C112.43 13.987 112.461 14.1354 112.523 14.2656C112.586 14.3958 112.695 14.513 112.852 14.6172C113.003 14.7214 113.206 14.8151 113.461 14.8984C113.721 14.9818 114.049 15.0625 114.445 15.1406C114.966 15.25 115.432 15.3776 115.844 15.5234C116.255 15.6641 116.602 15.8333 116.883 16.0312C117.164 16.2344 117.378 16.4688 117.523 16.7344C117.674 17 117.75 17.3073 117.75 17.6562C117.75 18.0312 117.664 18.3724 117.492 18.6797C117.326 18.987 117.091 19.25 116.789 19.4688C116.487 19.6875 116.125 19.8568 115.703 19.9766C115.281 20.0964 114.82 20.1562 114.32 20.1562C113.747 20.1562 113.237 20.0807 112.789 19.9297C112.341 19.7734 111.964 19.5677 111.656 19.3125C111.344 19.0625 111.104 18.7708 110.938 18.4375C110.776 18.1042 110.695 17.7578 110.695 17.3984H112.141C112.161 17.6953 112.24 17.9453 112.375 18.1484C112.516 18.3516 112.69 18.5156 112.898 18.6406C113.102 18.7656 113.328 18.8542 113.578 18.9062C113.828 18.9583 114.076 18.9844 114.32 18.9844C114.706 18.9844 115.042 18.9401 115.328 18.8516C115.615 18.7578 115.839 18.6302 116 18.4688C116.099 18.3698 116.174 18.2604 116.227 18.1406C116.279 18.0208 116.305 17.8932 116.305 17.7578ZM124.031 20.1562C123.438 20.1562 122.891 20.0547 122.391 19.8516C121.896 19.6484 121.471 19.3646 121.117 19C120.763 18.6354 120.487 18.2031 120.289 17.7031C120.091 17.2031 119.992 16.6589 119.992 16.0703V15.7422C119.992 15.0599 120.102 14.4505 120.32 13.9141C120.539 13.3724 120.831 12.9141 121.195 12.5391C121.555 12.1693 121.964 11.8854 122.422 11.6875C122.885 11.4896 123.359 11.3906 123.844 11.3906C124.453 11.3906 124.984 11.4974 125.438 11.7109C125.896 11.9193 126.276 12.2083 126.578 12.5781C126.88 12.9531 127.104 13.3932 127.25 13.8984C127.401 14.4036 127.477 14.9505 127.477 15.5391V16.1875H121.438V16.2422C121.474 16.6536 121.555 17.0156 121.68 17.3281C121.81 17.6406 121.987 17.9167 122.211 18.1562C122.44 18.4115 122.716 18.612 123.039 18.7578C123.362 18.9036 123.719 18.9766 124.109 18.9766C124.625 18.9766 125.083 18.8724 125.484 18.6641C125.885 18.4557 126.219 18.1797 126.484 17.8359L127.367 18.5234C127.086 18.9505 126.664 19.3307 126.102 19.6641C125.544 19.9922 124.854 20.1562 124.031 20.1562ZM123.844 12.5781C123.552 12.5781 123.276 12.6328 123.016 12.7422C122.755 12.8464 122.521 13 122.312 13.2031C122.104 13.4115 121.927 13.6667 121.781 13.9688C121.641 14.2656 121.542 14.6094 121.484 15H126.031V14.9297C126.031 14.6693 125.982 14.3906 125.883 14.0938C125.784 13.7917 125.646 13.5312 125.469 13.3125C125.292 13.0938 125.068 12.9167 124.797 12.7812C124.531 12.6458 124.214 12.5781 123.844 12.5781Z" fill="black"/>
<path fill-rule="evenodd" clip-rule="evenodd" d="M21.0294 25.6779H12.9392V23.5917H21.0294V25.6779ZM21.15 16.0162H12.8201V14.8462H21.15V16.0162ZM29.0624 15.6091H25.9686V12.4572H29.0624V15.6091ZM29.3594 11.1352H25.9686V9.00002H12.6406C11.366 9.0009 10.2739 9.38959 9.36435 10.1661C8.45478 10.9426 8 11.876 8 12.9662V15.1001C8.00103 16.1921 8.45581 17.1263 9.36435 17.9028C10.2729 18.6793 11.365 19.0676 12.6406 19.0676H13.8905V22.2696H11.3923V27L22.5763 26.9987V22.2696H20.0781V19.0689H25.9686V16.9311H29.3594L30.6092 15.8642V14.6942H34V13.3721H30.6092V12.2034L29.3594 11.1352ZM18.5312 22.2696H15.4374V17.7455H12.6406C11.7909 17.7446 11.0628 17.4855 10.4564 16.9681C9.85007 16.4508 9.54688 15.8285 9.54688 15.1014V12.9649C9.54688 12.2386 9.85007 11.6164 10.4564 11.0981C11.0628 10.5799 11.7914 10.3208 12.6422 10.3208H24.4217V17.7455H18.5312V22.2696Z" fill="black"/>
</svg>
