<svg width="151" height="41" viewBox="0 0 151 41" fill="none" xmlns="http://www.w3.org/2000/svg">
<path d="M0.5 6.08823C0.5 2.8395 3.13362 0.205887 6.38235 0.205887H144.618C147.866 0.205887 150.5 2.83951 150.5 6.08824V34.9118C150.5 38.1605 147.866 40.7941 144.618 40.7941H6.38235C3.13362 40.7941 0.5 38.1605 0.5 34.9118V6.08823Z" fill="#D3C1FF"/>
<path fill-rule="evenodd" clip-rule="evenodd" d="M20.3075 32.9956H10.5654V30.3656H20.3075V32.9956ZM20.4528 20.8156H10.422V19.3406H20.4528V20.8156ZM29.9808 20.3023H26.2553V16.3289H29.9808V20.3023ZM30.3384 14.6623H26.2553V11.9706H10.2059C8.67098 11.9717 7.35588 12.4617 6.26059 13.4406C5.16529 14.4195 4.61765 15.5962 4.61765 16.9706V19.6606C4.61889 21.0373 5.16653 22.215 6.26059 23.1939C7.35464 24.1728 8.66974 24.6623 10.2059 24.6623H11.711V28.6989H8.70265V34.6623L22.1703 34.6606V28.6989H19.162V24.6639H26.2553V21.9689H30.3384L31.8435 20.6239V19.1489H35.9267V17.4823H31.8435V16.0089L30.3384 14.6623ZM17.2992 28.6989H13.5737V22.9956H10.2059C9.18261 22.9945 8.30588 22.6678 7.57568 22.0156C6.84549 21.3634 6.48039 20.5789 6.48039 19.6623V16.9689C6.48039 16.0534 6.84549 15.2689 7.57568 14.6156C8.30588 13.9623 9.18323 13.6356 10.2077 13.6356H24.3925V22.9956H17.2992V28.6989Z" fill="black"/>
<path d="M43.4651 19.3143H37.8768V24.057H44.3934V25.5H36.1765V12.1176H44.3107V13.5699H37.8768V17.8713H43.4651V19.3143ZM51.5166 19.2408L54.1728 15.5551H56.1673L52.4632 20.4724L56.2684 25.5H54.3015L51.5533 21.7132L48.8052 25.5H46.8199L50.625 20.4724L46.921 15.5551H48.8879L51.5166 19.2408ZM58.7041 29.3235V15.5551H60.2574L60.3401 16.6397C60.4749 16.4681 60.6219 16.315 60.7813 16.1801C60.9406 16.0392 61.1121 15.9197 61.296 15.8217C61.5533 15.6746 61.8382 15.5643 62.1507 15.4908C62.4694 15.4112 62.8094 15.3713 63.171 15.3713C63.8082 15.3713 64.3719 15.4969 64.8621 15.7482C65.3523 15.9994 65.7629 16.3487 66.0938 16.796C66.4246 17.2433 66.6759 17.7794 66.8474 18.4044C67.019 19.0233 67.1048 19.7034 67.1048 20.4449V20.6379C67.1048 21.3487 67.019 22.0135 66.8474 22.6324C66.6759 23.2451 66.4246 23.7782 66.0938 24.2316C65.7629 24.685 65.3523 25.0404 64.8621 25.2978C64.3781 25.5551 63.8235 25.6838 63.1985 25.6838C62.8186 25.6838 62.4632 25.644 62.1324 25.5643C61.8076 25.4847 61.5135 25.3713 61.25 25.2243C61.0907 25.1324 60.9406 25.0312 60.7996 24.921C60.6587 24.8045 60.527 24.6789 60.4044 24.5441V29.3235H58.7041ZM65.4044 20.4449C65.4044 19.9608 65.3493 19.5012 65.239 19.0662C65.1348 18.625 64.9724 18.2359 64.7518 17.8989C64.5251 17.568 64.2402 17.3045 63.8971 17.1085C63.5539 16.9124 63.1434 16.8143 62.6655 16.8143C62.402 16.8143 62.1569 16.845 61.9302 16.9062C61.7096 16.9675 61.5104 17.0564 61.3327 17.1728C61.1367 17.2892 60.962 17.4332 60.8088 17.6048C60.6556 17.7763 60.5208 17.9663 60.4044 18.1746V22.9632C60.5086 23.1471 60.6281 23.3186 60.7629 23.4779C60.8977 23.6373 61.0509 23.7721 61.2224 23.8824C61.4185 24.011 61.636 24.1121 61.875 24.1857C62.1201 24.2592 62.3897 24.296 62.6838 24.296C63.1556 24.296 63.5631 24.1979 63.9063 24.0018C64.2494 23.7996 64.5313 23.53 64.7518 23.193C64.9724 22.856 65.1348 22.4669 65.239 22.0257C65.3493 21.5846 65.4044 21.1219 65.4044 20.6379V20.4449ZM74.4118 25.6838C73.7132 25.6838 73.0699 25.5643 72.4816 25.3254C71.8995 25.0864 71.4001 24.7525 70.9835 24.3235C70.5668 23.8946 70.242 23.386 70.0092 22.7978C69.7764 22.2096 69.6599 21.5692 69.6599 20.8768V20.4908C69.6599 19.6881 69.7886 18.9712 70.046 18.3401C70.3033 17.7028 70.6465 17.1636 71.0754 16.7224C71.4982 16.2874 71.9792 15.9534 72.5184 15.7206C73.0637 15.4877 73.6213 15.3713 74.1912 15.3713C74.9081 15.3713 75.5331 15.4969 76.0662 15.7482C76.6054 15.9933 77.0527 16.3333 77.4081 16.7684C77.7635 17.2096 78.027 17.7273 78.1985 18.3217C78.3762 18.9161 78.4651 19.5594 78.4651 20.2518V21.0147H71.3603V21.079C71.4032 21.5631 71.4982 21.989 71.6452 22.3566C71.7984 22.7243 72.0068 23.049 72.2702 23.3309C72.5398 23.6311 72.8646 23.867 73.2445 24.0386C73.6244 24.2102 74.0441 24.296 74.5037 24.296C75.1103 24.296 75.6495 24.1734 76.1213 23.9283C76.5931 23.6832 76.9853 23.3585 77.2978 22.954L78.3364 23.7629C78.0055 24.2653 77.5092 24.7126 76.8474 25.1048C76.1918 25.4908 75.3799 25.6838 74.4118 25.6838ZM74.1912 16.7684C73.8481 16.7684 73.5233 16.8327 73.2169 16.9614C72.9106 17.0839 72.6348 17.2647 72.3897 17.5037C72.1446 17.7488 71.9363 18.049 71.7647 18.4044C71.5993 18.7537 71.4829 19.1581 71.4155 19.6176H76.7647V19.5349C76.7647 19.2286 76.7065 18.9007 76.5901 18.5515C76.4737 18.1961 76.3113 17.8897 76.103 17.6324C75.8946 17.375 75.6311 17.1667 75.3125 17.0074C75 16.848 74.6262 16.7684 74.1912 16.7684ZM87.8401 15.3713C88.1526 15.3713 88.4773 15.3928 88.8143 15.4357C89.1575 15.4786 89.4148 15.5368 89.5864 15.6103L89.3566 17.2739C89.0257 17.2004 88.7102 17.1483 88.4099 17.1176C88.1158 17.0809 87.8064 17.0625 87.4816 17.0625C87.065 17.0625 86.6881 17.1146 86.3511 17.2187C86.0141 17.3168 85.72 17.4638 85.4688 17.6599C85.242 17.8315 85.0429 18.0429 84.8713 18.2941C84.7059 18.5392 84.568 18.815 84.4577 19.1213V25.5H82.7482V15.5551H84.3658L84.4393 16.8879L84.4485 17.136C84.853 16.5907 85.337 16.1618 85.9007 15.8493C86.4706 15.5306 87.117 15.3713 87.8401 15.3713ZM96.6544 13.1471V15.5551H100.441V16.8695H96.6544V22.2739C96.6544 22.6599 96.7034 22.9786 96.8015 23.2298C96.8995 23.481 97.0343 23.6801 97.2059 23.8272C97.3775 23.9804 97.5735 24.0876 97.7941 24.1489C98.0208 24.2102 98.2598 24.2408 98.511 24.2408C98.6949 24.2408 98.8848 24.2316 99.0809 24.2132C99.277 24.1887 99.47 24.1612 99.6599 24.1305C99.8438 24.0999 100.015 24.0692 100.175 24.0386C100.34 24.0018 100.475 23.9712 100.579 23.9467L100.818 25.1507C100.677 25.2365 100.506 25.3131 100.303 25.3805C100.101 25.4418 99.8805 25.4939 99.6416 25.5368C99.4026 25.5858 99.1483 25.6225 98.8787 25.6471C98.6152 25.6716 98.3517 25.6838 98.0882 25.6838C97.6471 25.6838 97.2335 25.6225 96.8474 25.5C96.4675 25.3713 96.1366 25.1691 95.8548 24.8934C95.5729 24.6238 95.3493 24.2745 95.1838 23.8456C95.0245 23.4105 94.9449 22.8866 94.9449 22.2739V16.8695H92.3346V15.5551H94.9449V13.1471H96.6544ZM111.296 19.3143H105.708V24.057H112.224V25.5H104.007V12.1176H112.142V13.5699H105.708V17.8713H111.296V19.3143ZM121.774 25.5C121.707 25.3713 121.651 25.212 121.608 25.0221C121.572 24.826 121.544 24.6238 121.526 24.4154C121.354 24.587 121.161 24.7494 120.947 24.9026C120.738 25.0558 120.509 25.1906 120.257 25.307C120 25.4234 119.727 25.5153 119.439 25.5827C119.151 25.6501 118.845 25.6838 118.52 25.6838C117.993 25.6838 117.515 25.6072 117.086 25.454C116.664 25.3009 116.305 25.0925 116.011 24.829C115.711 24.5717 115.478 24.2653 115.313 23.9099C115.153 23.5484 115.074 23.1593 115.074 22.7426C115.074 22.1973 115.181 21.7194 115.395 21.3088C115.616 20.8983 115.925 20.5551 116.324 20.2794C116.722 20.0098 117.2 19.8076 117.757 19.6728C118.321 19.538 118.949 19.4706 119.642 19.4706H121.498V18.6893C121.498 18.3891 121.443 18.1195 121.333 17.8805C121.222 17.6415 121.066 17.4363 120.864 17.2647C120.662 17.0993 120.414 16.9706 120.119 16.8787C119.832 16.7868 119.507 16.7408 119.145 16.7408C118.808 16.7408 118.505 16.7837 118.235 16.8695C117.972 16.9553 117.748 17.0686 117.564 17.2096C117.381 17.3505 117.237 17.519 117.132 17.7151C117.034 17.905 116.985 18.1042 116.985 18.3125H115.276C115.282 17.951 115.374 17.5956 115.551 17.2463C115.735 16.8971 115.999 16.5815 116.342 16.2996C116.679 16.0239 117.089 15.8002 117.574 15.6287C118.064 15.4571 118.618 15.3713 119.237 15.3713C119.801 15.3713 120.325 15.4418 120.809 15.5827C121.293 15.7175 121.713 15.9228 122.068 16.1985C122.417 16.4804 122.693 16.8297 122.895 17.2463C123.097 17.663 123.199 18.1501 123.199 18.7077V23.3309C123.199 23.6618 123.229 24.0141 123.29 24.3879C123.352 24.7555 123.438 25.0772 123.548 25.3529V25.5H121.774ZM118.768 24.204C119.099 24.204 119.409 24.1612 119.697 24.0754C119.985 23.9896 120.248 23.8762 120.487 23.7353C120.72 23.5944 120.922 23.435 121.094 23.2574C121.265 23.0735 121.4 22.8836 121.498 22.6875V20.6746H119.917C119.329 20.6746 118.814 20.7267 118.373 20.8309C117.938 20.9289 117.592 21.0821 117.335 21.2904C117.151 21.4375 117.01 21.6121 116.912 21.8143C116.82 22.0165 116.774 22.2463 116.774 22.5037C116.774 22.7488 116.814 22.9755 116.893 23.1838C116.979 23.3922 117.105 23.5699 117.27 23.7169C117.436 23.8701 117.644 23.9896 117.895 24.0754C118.146 24.1612 118.438 24.204 118.768 24.204ZM133.153 22.8621C133.153 22.6599 133.113 22.4792 133.033 22.3199C132.953 22.1544 132.819 22.0043 132.629 21.8695C132.439 21.7347 132.188 21.6121 131.875 21.5018C131.563 21.3854 131.173 21.2812 130.708 21.1893C130.138 21.0729 129.617 20.932 129.145 20.7665C128.68 20.6011 128.281 20.402 127.95 20.1691C127.613 19.9424 127.353 19.6759 127.169 19.3695C126.985 19.057 126.893 18.6955 126.893 18.2849C126.893 17.8805 126.988 17.5037 127.178 17.1544C127.368 16.799 127.635 16.4896 127.978 16.2261C128.321 15.9626 128.729 15.7543 129.2 15.6011C129.678 15.4479 130.202 15.3713 130.772 15.3713C131.385 15.3713 131.936 15.451 132.426 15.6103C132.917 15.7696 133.333 15.9902 133.676 16.2721C134.02 16.5539 134.283 16.8848 134.467 17.2647C134.657 17.6385 134.752 18.0429 134.752 18.4779H133.051C133.051 18.2635 132.996 18.0551 132.886 17.8529C132.776 17.6446 132.623 17.4608 132.426 17.3015C132.23 17.1422 131.991 17.0135 131.71 16.9154C131.434 16.8174 131.121 16.7684 130.772 16.7684C130.411 16.7684 130.092 16.8082 129.816 16.8879C129.547 16.9675 129.323 17.0748 129.145 17.2096C128.961 17.3444 128.824 17.5006 128.732 17.6783C128.64 17.856 128.594 18.0398 128.594 18.2298C128.594 18.4259 128.631 18.6005 128.704 18.7537C128.778 18.9069 128.906 19.0447 129.09 19.1673C129.268 19.2898 129.507 19.4001 129.807 19.4982C130.113 19.5962 130.499 19.6912 130.965 19.7831C131.578 19.9118 132.126 20.0619 132.61 20.2335C133.094 20.3989 133.502 20.598 133.833 20.8309C134.164 21.0699 134.415 21.3456 134.586 21.6581C134.764 21.9706 134.853 22.3321 134.853 22.7426C134.853 23.1838 134.752 23.5852 134.55 23.9467C134.354 24.3082 134.078 24.6176 133.722 24.875C133.367 25.1324 132.941 25.3315 132.445 25.4724C131.949 25.6134 131.406 25.6838 130.818 25.6838C130.144 25.6838 129.544 25.595 129.017 25.4173C128.49 25.2335 128.045 24.9914 127.684 24.6912C127.316 24.3971 127.034 24.0539 126.838 23.6618C126.648 23.2696 126.553 22.8621 126.553 22.4393H128.254C128.278 22.7886 128.37 23.0827 128.529 23.3217C128.695 23.5607 128.9 23.7537 129.145 23.9007C129.384 24.0478 129.651 24.152 129.945 24.2132C130.239 24.2745 130.53 24.3051 130.818 24.3051C131.271 24.3051 131.667 24.2531 132.004 24.1489C132.341 24.0386 132.604 23.8885 132.794 23.6985C132.911 23.5821 132.999 23.4534 133.061 23.3125C133.122 23.1716 133.153 23.0214 133.153 22.8621ZM142.243 25.6838C141.544 25.6838 140.901 25.5643 140.313 25.3254C139.73 25.0864 139.231 24.7525 138.814 24.3235C138.398 23.8946 138.073 23.386 137.84 22.7978C137.607 22.2096 137.491 21.5692 137.491 20.8768V20.4908C137.491 19.6881 137.619 18.9712 137.877 18.3401C138.134 17.7028 138.477 17.1636 138.906 16.7224C139.329 16.2874 139.81 15.9534 140.349 15.7206C140.895 15.4877 141.452 15.3713 142.022 15.3713C142.739 15.3713 143.364 15.4969 143.897 15.7482C144.436 15.9933 144.884 16.3333 145.239 16.7684C145.594 17.2096 145.858 17.7273 146.029 18.3217C146.207 18.9161 146.296 19.5594 146.296 20.2518V21.0147H139.191V21.079C139.234 21.5631 139.329 21.989 139.476 22.3566C139.629 22.7243 139.838 23.049 140.101 23.3309C140.371 23.6311 140.695 23.867 141.075 24.0386C141.455 24.2102 141.875 24.296 142.335 24.296C142.941 24.296 143.48 24.1734 143.952 23.9283C144.424 23.6832 144.816 23.3585 145.129 22.954L146.167 23.7629C145.836 24.2653 145.34 24.7126 144.678 25.1048C144.023 25.4908 143.211 25.6838 142.243 25.6838ZM142.022 16.7684C141.679 16.7684 141.354 16.8327 141.048 16.9614C140.741 17.0839 140.466 17.2647 140.221 17.5037C139.975 17.7488 139.767 18.049 139.596 18.4044C139.43 18.7537 139.314 19.1581 139.246 19.6176H144.596V19.5349C144.596 19.2286 144.537 18.9007 144.421 18.5515C144.305 18.1961 144.142 17.8897 143.934 17.6324C143.725 17.375 143.462 17.1667 143.143 17.0074C142.831 16.848 142.457 16.7684 142.022 16.7684Z" fill="black"/>
</svg>
