<svg width="32" height="32" viewBox="0 0 32 32" fill="none" xmlns="http://www.w3.org/2000/svg">
<path d="M10.6666 24L16 19.9333L21.3333 24L19.3333 17.4L24.6666 13.6H18.1333L16 6.66666L13.8666 13.6H7.33329L12.6666 17.4L10.6666 24ZM16 29.3333C14.1555 29.3333 12.4222 28.9833 10.8 28.2833C9.17774 27.5833 7.76663 26.6333 6.56663 25.4333C5.36663 24.2333 4.41663 22.8222 3.71663 21.2C3.01663 19.5778 2.66663 17.8444 2.66663 16C2.66663 14.1555 3.01663 12.4222 3.71663 10.8C4.41663 9.17777 5.36663 7.76666 6.56663 6.56666C7.76663 5.36666 9.17774 4.41666 10.8 3.71666C12.4222 3.01666 14.1555 2.66666 16 2.66666C17.8444 2.66666 19.5777 3.01666 21.2 3.71666C22.8222 4.41666 24.2333 5.36666 25.4333 6.56666C26.6333 7.76666 27.5833 9.17777 28.2833 10.8C28.9833 12.4222 29.3333 14.1555 29.3333 16C29.3333 17.8444 28.9833 19.5778 28.2833 21.2C27.5833 22.8222 26.6333 24.2333 25.4333 25.4333C24.2333 26.6333 22.8222 27.5833 21.2 28.2833C19.5777 28.9833 17.8444 29.3333 16 29.3333Z" fill="#1D1B20"/>
</svg>
