<svg width="256" height="256" viewBox="0 0 256 256" fill="none" xmlns="http://www.w3.org/2000/svg">
<rect width="256" height="256" rx="128" fill="#EADDFF"/>
<path fill-rule="evenodd" clip-rule="evenodd" d="M166.402 102.4C166.402 123.608 149.209 140.8 128.002 140.8C106.794 140.8 89.6016 123.608 89.6016 102.4C89.6016 81.1923 106.794 64 128.002 64C149.209 64 166.402 81.1923 166.402 102.4ZM153.602 102.4C153.602 116.538 142.14 128 128.002 128C113.863 128 102.402 116.538 102.402 102.4C102.402 88.2615 113.863 76.8 128.002 76.8C142.14 76.8 153.602 88.2615 153.602 102.4Z" fill="#4F378A"/>
<path d="M128.002 160C86.5655 160 51.2609 184.502 37.8125 218.829C41.0886 222.082 44.5398 225.159 48.1506 228.045C58.1649 196.529 89.5806 172.8 128.002 172.8C166.423 172.8 197.838 196.529 207.853 228.045C211.463 225.159 214.915 222.082 218.191 218.829C204.742 184.502 169.438 160 128.002 160Z" fill="#4F378A"/>
</svg>
