<svg width="64" height="64" viewBox="0 0 64 64" fill="none" xmlns="http://www.w3.org/2000/svg">
<mask id="path-1-inside-1_115_73" fill="white">
<path d="M32 12C36.0818 12.0007 40.0657 13.2504 43.4167 15.5811C46.7677 17.9119 49.3252 21.2122 50.746 25.0388C52.1667 28.8654 52.3825 33.0351 51.3645 36.988C50.3465 40.9409 48.1434 44.4876 45.051 47.1519C41.9586 49.8163 38.125 51.4706 34.065 51.8927C30.0051 52.3149 25.9132 51.4847 22.3388 49.5136C18.7643 47.5426 15.8786 44.525 14.0691 40.8662C12.2596 37.2073 11.6129 33.0824 12.216 29.0453C12.3946 27.8347 11.5093 26.6667 10.2853 26.6667C9.80773 26.6585 9.34301 26.8215 8.9752 27.1262C8.60738 27.431 8.36077 27.8573 8.27996 28.328C7.41421 33.9147 8.54845 39.6278 11.4828 44.4601C14.4171 49.2924 18.9631 52.9337 24.3194 54.7422C29.6758 56.5507 35.4986 56.4102 40.7616 54.3456C46.0245 52.281 50.3897 48.4248 53.0877 43.4567C55.7856 38.4885 56.6431 32.7274 55.509 27.1889C54.375 21.6504 51.3221 16.69 46.8886 13.1821C42.4551 9.67425 36.9256 7.84406 31.2747 8.01417C25.6238 8.18428 20.2144 10.3438 16 14.112V11.3333C16 10.8029 15.7892 10.2942 15.4142 9.91912C15.0391 9.54405 14.5304 9.33334 14 9.33334C13.4695 9.33334 12.9608 9.54405 12.5857 9.91912C12.2107 10.2942 12 10.8029 12 11.3333V19.3333C12 20.4373 12.896 21.3333 14 21.3333H22C22.5304 21.3333 23.0391 21.1226 23.4142 20.7476C23.7892 20.3725 24 19.8638 24 19.3333C24 18.8029 23.7892 18.2942 23.4142 17.9191C23.0391 17.544 22.5304 17.3333 22 17.3333H18.4C22.0943 13.8975 26.9548 11.9914 32 12ZM33.3333 20.6667C33.3333 20.1362 33.1226 19.6275 32.7475 19.2525C32.3724 18.8774 31.8637 18.6667 31.3333 18.6667C30.8029 18.6667 30.2942 18.8774 29.9191 19.2525C29.544 19.6275 29.3333 20.1362 29.3333 20.6667V32.6667C29.3333 33.7707 30.2293 34.6667 31.3333 34.6667H39.3333C39.8637 34.6667 40.3724 34.456 40.7475 34.0809C41.1226 33.7058 41.3333 33.1971 41.3333 32.6667C41.3333 32.1362 41.1226 31.6275 40.7475 31.2525C40.3724 30.8774 39.8637 30.6667 39.3333 30.6667H33.3333V20.6667Z"/>
</mask>
<path d="M32 12C36.0818 12.0007 40.0657 13.2504 43.4167 15.5811C46.7677 17.9119 49.3252 21.2122 50.746 25.0388C52.1667 28.8654 52.3825 33.0351 51.3645 36.988C50.3465 40.9409 48.1434 44.4876 45.051 47.1519C41.9586 49.8163 38.125 51.4706 34.065 51.8927C30.0051 52.3149 25.9132 51.4847 22.3388 49.5136C18.7643 47.5426 15.8786 44.525 14.0691 40.8662C12.2596 37.2073 11.6129 33.0824 12.216 29.0453C12.3946 27.8347 11.5093 26.6667 10.2853 26.6667C9.80773 26.6585 9.34301 26.8215 8.9752 27.1262C8.60738 27.431 8.36077 27.8573 8.27996 28.328C7.41421 33.9147 8.54845 39.6278 11.4828 44.4601C14.4171 49.2924 18.9631 52.9337 24.3194 54.7422C29.6758 56.5507 35.4986 56.4102 40.7616 54.3456C46.0245 52.281 50.3897 48.4248 53.0877 43.4567C55.7856 38.4885 56.6431 32.7274 55.509 27.1889C54.375 21.6504 51.3221 16.69 46.8886 13.1821C42.4551 9.67425 36.9256 7.84406 31.2747 8.01417C25.6238 8.18428 20.2144 10.3438 16 14.112V11.3333C16 10.8029 15.7892 10.2942 15.4142 9.91912C15.0391 9.54405 14.5304 9.33334 14 9.33334C13.4695 9.33334 12.9608 9.54405 12.5857 9.91912C12.2107 10.2942 12 10.8029 12 11.3333V19.3333C12 20.4373 12.896 21.3333 14 21.3333H22C22.5304 21.3333 23.0391 21.1226 23.4142 20.7476C23.7892 20.3725 24 19.8638 24 19.3333C24 18.8029 23.7892 18.2942 23.4142 17.9191C23.0391 17.544 22.5304 17.3333 22 17.3333H18.4C22.0943 13.8975 26.9548 11.9914 32 12ZM33.3333 20.6667C33.3333 20.1362 33.1226 19.6275 32.7475 19.2525C32.3724 18.8774 31.8637 18.6667 31.3333 18.6667C30.8029 18.6667 30.2942 18.8774 29.9191 19.2525C29.544 19.6275 29.3333 20.1362 29.3333 20.6667V32.6667C29.3333 33.7707 30.2293 34.6667 31.3333 34.6667H39.3333C39.8637 34.6667 40.3724 34.456 40.7475 34.0809C41.1226 33.7058 41.3333 33.1971 41.3333 32.6667C41.3333 32.1362 41.1226 31.6275 40.7475 31.2525C40.3724 30.8774 39.8637 30.6667 39.3333 30.6667H33.3333V20.6667Z" fill="black"/>
<path d="M32 12L31.9863 20L31.9986 20L32 12ZM12.216 29.0453L20.1282 30.2272L20.1302 30.2133L12.216 29.0453ZM10.2853 26.6667L10.1486 34.6655L10.217 34.6667H10.2853V26.6667ZM8.27996 28.328L0.395288 26.9745L0.384282 27.0386L0.374321 27.1029L8.27996 28.328ZM16 14.112H7.99996V31.9964L21.3323 20.0758L16 14.112ZM16 11.3333L24 11.3333L16 11.3333ZM12 11.3333H3.99996H12ZM22 21.3333L22 29.3333L22 21.3333ZM22 17.3333V9.33334V17.3333ZM18.4 17.3333L12.9518 11.4752L-1.94893 25.3333H18.4V17.3333ZM33.3333 20.6667L41.3333 20.6667L41.3333 20.6667L33.3333 20.6667ZM31.3333 18.6667V26.6667V18.6667ZM29.3333 20.6667L21.3333 20.6667V20.6667H29.3333ZM33.3333 30.6667H25.3333V38.6667H33.3333V30.6667ZM32 12L31.9986 20C34.4477 20.0004 36.838 20.7502 38.8486 22.1487L43.4167 15.5811L47.9848 9.01357C43.2934 5.75049 37.7159 4.00099 32.0013 4L32 12ZM43.4167 15.5811L38.8486 22.1487C40.8592 23.5471 42.3937 25.5273 43.2462 27.8233L50.746 25.0388L58.2457 22.2543C56.2567 16.8971 52.6761 12.2767 47.9848 9.01357L43.4167 15.5811ZM50.746 25.0388L43.2462 27.8233C44.0986 30.1193 44.2281 32.6211 43.6173 34.9928L51.3645 36.988L59.1117 38.9832C60.5369 33.4492 60.2347 27.6116 58.2457 22.2543L50.746 25.0388ZM51.3645 36.988L43.6173 34.9928C43.0065 37.3645 41.6846 39.4926 39.8292 41.0912L45.051 47.1519L50.2728 53.2127C54.6021 49.4827 57.6865 44.5172 59.1117 38.9832L51.3645 36.988ZM45.051 47.1519L39.8292 41.0912C37.9738 42.6898 35.6736 43.6823 33.2376 43.9356L34.065 51.8927L34.8925 59.8498C40.5764 59.2588 45.9434 56.9427 50.2728 53.2127L45.051 47.1519ZM34.065 51.8927L33.2376 43.9356C30.8017 44.189 28.3465 43.6908 26.2019 42.5082L22.3388 49.5136L18.4756 56.5191C23.4798 59.2786 29.2085 60.4409 34.8925 59.8498L34.065 51.8927ZM22.3388 49.5136L26.2019 42.5082C24.0572 41.3255 22.3258 39.515 21.2401 37.3197L14.0691 40.8662L6.89816 44.4126C9.43148 49.535 13.4715 53.7596 18.4756 56.5191L22.3388 49.5136ZM14.0691 40.8662L21.2401 37.3197C20.1544 35.1244 19.7664 32.6494 20.1282 30.2272L12.216 29.0453L4.30374 27.8635C3.45951 33.5154 4.36484 39.2902 6.89816 44.4126L14.0691 40.8662ZM12.216 29.0453L20.1302 30.2133C20.9222 24.8466 17.051 18.6667 10.2853 18.6667V26.6667V34.6667C5.96756 34.6667 3.867 30.8228 4.30168 27.8774L12.216 29.0453ZM10.2853 26.6667L10.422 18.6678C8.03411 18.627 5.71052 19.4422 3.87147 20.9657L8.9752 27.1262L14.0789 33.2868C12.9755 34.2009 11.5813 34.69 10.1486 34.6655L10.2853 26.6667ZM8.9752 27.1262L3.87147 20.9657C2.03242 22.4893 0.79934 24.6207 0.395288 26.9745L8.27996 28.328L16.1646 29.6815C15.9222 31.0938 15.1824 32.3726 14.0789 33.2868L8.9752 27.1262ZM8.27996 28.328L0.374321 27.1029C-0.780016 34.5519 0.732313 42.1693 4.64473 48.6123L11.4828 44.4601L18.3208 40.3078C16.3646 37.0863 15.6084 33.2776 16.1856 29.5531L8.27996 28.328ZM11.4828 44.4601L4.64473 48.6123C8.55714 55.0554 14.6185 59.9105 21.7603 62.3218L24.3194 54.7422L26.8786 47.1626C23.3077 45.9569 20.277 43.5293 18.3208 40.3078L11.4828 44.4601ZM24.3194 54.7422L21.7603 62.3218C28.9021 64.7331 36.6659 64.5459 43.6832 61.7931L40.7616 54.3456L37.84 46.8982C34.3314 48.2746 30.4495 48.3682 26.8786 47.1626L24.3194 54.7422ZM40.7616 54.3456L43.6832 61.7931C50.7004 59.0403 56.5207 53.8986 60.1179 47.2744L53.0877 43.4567L46.0574 39.6389C44.2588 42.951 41.3487 45.5218 37.84 46.8982L40.7616 54.3456ZM53.0877 43.4567L60.1179 47.2744C63.7152 40.6503 64.8585 32.9688 63.3464 25.5841L55.509 27.1889L47.6717 28.7937C48.4277 32.4861 47.856 36.3268 46.0574 39.6389L53.0877 43.4567ZM55.509 27.1889L63.3464 25.5841C61.8343 18.1995 57.7639 11.5856 51.8525 6.90842L46.8886 13.1821L41.9247 19.4559C44.8804 21.7945 46.9156 25.1014 47.6717 28.7937L55.509 27.1889ZM46.8886 13.1821L51.8525 6.90842C45.9412 2.23124 38.5685 -0.209022 31.034 0.0177933L31.2747 8.01417L31.5154 16.0105C35.2827 15.8971 38.969 17.1173 41.9247 19.4559L46.8886 13.1821ZM31.2747 8.01417L31.034 0.0177933C23.4995 0.244608 16.2869 3.12394 10.6677 8.14824L16 14.112L21.3323 20.0758C24.1419 17.5636 27.7482 16.124 31.5154 16.0105L31.2747 8.01417ZM16 14.112H24V11.3333H16H7.99996V14.112H16ZM16 11.3333L24 11.3333C24 8.68117 22.9464 6.13763 21.071 4.26227L15.4142 9.91912L9.75732 15.576C8.6321 14.4508 7.99996 12.9246 7.99996 11.3333L16 11.3333ZM15.4142 9.91912L21.071 4.26227C19.1957 2.3869 16.6521 1.33334 14 1.33334V9.33334V17.3333C12.4087 17.3333 10.8825 16.7012 9.75732 15.576L15.4142 9.91912ZM14 9.33334V1.33334C11.3478 1.33334 8.80426 2.3869 6.92889 4.26227L12.5857 9.91912L18.2426 15.576C17.1174 16.7012 15.5913 17.3333 14 17.3333V9.33334ZM12.5857 9.91912L6.92889 4.26227C5.05352 6.13764 3.99996 8.68118 3.99996 11.3333L12 11.3333L20 11.3333C20 12.9246 19.3678 14.4508 18.2426 15.576L12.5857 9.91912ZM12 11.3333H3.99996V19.3333H12H20V11.3333H12ZM12 19.3333H3.99996C3.99996 24.8556 8.47768 29.3333 14 29.3333V21.3333V13.3333C17.3142 13.3333 20 16.0191 20 19.3333H12ZM14 21.3333V29.3333H22V21.3333V13.3333H14V21.3333ZM22 21.3333L22 29.3333C24.6521 29.3333 27.1957 28.2798 29.071 26.4044L23.4142 20.7476L17.7573 15.0907C18.8825 13.9655 20.4087 13.3333 22 13.3333L22 21.3333ZM23.4142 20.7476L29.071 26.4044C30.9464 24.529 32 21.9855 32 19.3333H24H16C16 17.742 16.6321 16.2159 17.7573 15.0907L23.4142 20.7476ZM24 19.3333H32C32 16.6812 30.9464 14.1376 29.071 12.2623L23.4142 17.9191L17.7573 23.576C16.6321 22.4508 16 20.9247 16 19.3333H24ZM23.4142 17.9191L29.071 12.2623C27.1957 10.3869 24.6521 9.33334 22 9.33334L22 17.3333L22 25.3333C20.4087 25.3333 18.8825 24.7012 17.7573 23.576L23.4142 17.9191ZM22 17.3333V9.33334H18.4V17.3333V25.3333H22V17.3333ZM18.4 17.3333L23.8482 23.1914C26.0588 21.1354 28.9673 19.9948 31.9863 20L32 12L32.0136 4.00001C24.9423 3.98795 18.1298 6.65951 12.9518 11.4752L18.4 17.3333ZM33.3333 20.6667L41.3333 20.6667C41.3333 18.0145 40.2797 15.471 38.4044 13.5956L32.7475 19.2525L27.0907 24.9093C25.9654 23.7841 25.3333 22.258 25.3333 20.6667L33.3333 20.6667ZM32.7475 19.2525L38.4044 13.5956C36.529 11.7202 33.9855 10.6667 31.3333 10.6667V18.6667V26.6667C29.742 26.6667 28.2159 26.0345 27.0907 24.9093L32.7475 19.2525ZM31.3333 18.6667L31.3333 10.6667C28.6811 10.6667 26.1376 11.7202 24.2622 13.5956L29.9191 19.2525L35.5759 24.9093C34.4507 26.0345 32.9246 26.6667 31.3333 26.6667L31.3333 18.6667ZM29.9191 19.2525L24.2622 13.5956C22.3869 15.471 21.3333 18.0145 21.3333 20.6667L29.3333 20.6667L37.3333 20.6667C37.3333 22.258 36.7012 23.7841 35.5759 24.9093L29.9191 19.2525ZM29.3333 20.6667H21.3333V32.6667H29.3333H37.3333V20.6667H29.3333ZM29.3333 32.6667H21.3333C21.3333 38.1889 25.811 42.6667 31.3333 42.6667V34.6667V26.6667C34.6476 26.6667 37.3333 29.3524 37.3333 32.6667H29.3333ZM31.3333 34.6667V42.6667H39.3333V34.6667V26.6667H31.3333V34.6667ZM39.3333 34.6667V42.6667C41.9855 42.6667 44.529 41.6131 46.4044 39.7377L40.7475 34.0809L35.0907 28.424C36.2159 27.2988 37.742 26.6667 39.3333 26.6667V34.6667ZM40.7475 34.0809L46.4044 39.7377C48.2797 37.8624 49.3333 35.3189 49.3333 32.6667H41.3333H33.3333C33.3333 31.0753 33.9655 29.5492 35.0907 28.424L40.7475 34.0809ZM41.3333 32.6667H49.3333C49.3333 30.0145 48.2797 27.4709 46.4044 25.5956L40.7475 31.2525L35.0907 36.9093C33.9655 35.7841 33.3333 34.258 33.3333 32.6667H41.3333ZM40.7475 31.2525L46.4044 25.5956C44.529 23.7202 41.9855 22.6667 39.3333 22.6667V30.6667V38.6667C37.742 38.6667 36.2159 38.0345 35.0907 36.9093L40.7475 31.2525ZM39.3333 30.6667V22.6667H33.3333V30.6667V38.6667H39.3333V30.6667ZM33.3333 30.6667H41.3333V20.6667H33.3333H25.3333V30.6667H33.3333Z" fill="black" mask="url(#path-1-inside-1_115_73)"/>
</svg>
