<svg width="32" height="32" viewBox="0 0 32 32" fill="none" xmlns="http://www.w3.org/2000/svg">
<path d="M26.6667 5.33335H22.44L20 2.66669H12L9.55999 5.33335H5.33332C4.62608 5.33335 3.9478 5.61431 3.4477 6.1144C2.94761 6.6145 2.66666 7.29278 2.66666 8.00002V24C2.66666 24.7073 2.94761 25.3855 3.4477 25.8856C3.9478 26.3857 4.62608 26.6667 5.33332 26.6667H26.6667C27.3739 26.6667 28.0522 26.3857 28.5523 25.8856C29.0524 25.3855 29.3333 24.7073 29.3333 24V8.00002C29.3333 7.29278 29.0524 6.6145 28.5523 6.1144C28.0522 5.61431 27.3739 5.33335 26.6667 5.33335ZM26.6667 24H5.33332V8.00002H10.7333L13.1733 5.33335H18.8267L21.2667 8.00002H26.6667V24ZM16 9.33335C14.2319 9.33335 12.5362 10.0357 11.2859 11.286C10.0357 12.5362 9.33332 14.2319 9.33332 16C9.33332 17.7681 10.0357 19.4638 11.2859 20.7141C12.5362 21.9643 14.2319 22.6667 16 22.6667C17.7681 22.6667 19.4638 21.9643 20.714 20.7141C21.9643 19.4638 22.6667 17.7681 22.6667 16C22.6667 14.2319 21.9643 12.5362 20.714 11.286C19.4638 10.0357 17.7681 9.33335 16 9.33335ZM16 20C14.9391 20 13.9217 19.5786 13.1716 18.8284C12.4214 18.0783 12 17.0609 12 16C12 14.9392 12.4214 13.9217 13.1716 13.1716C13.9217 12.4214 14.9391 12 16 12C17.0609 12 18.0783 12.4214 18.8284 13.1716C19.5786 13.9217 20 14.9392 20 16C20 17.0609 19.5786 18.0783 18.8284 18.8284C18.0783 19.5786 17.0609 20 16 20Z" fill="black"/>
</svg>
