<svg width="64" height="64" viewBox="0 0 64 64" fill="none" xmlns="http://www.w3.org/2000/svg">
<path d="M32 16L35.824 23.406L44 24.594L38 30L40 38L32 33.5L24 38L26 30L20 24.594L28.4 23.406L32 16Z" fill="black"/>
<path d="M35.472 60L32 58L40 44H52C52.5255 44.0008 53.046 43.8979 53.5317 43.6971C54.0173 43.4964 54.4586 43.2018 54.8302 42.8302C55.2018 42.4586 55.4964 42.0173 55.6971 41.5317C55.8979 41.046 56.0008 40.5255 56 40V16C56.0008 15.4745 55.8979 14.954 55.6971 14.4683C55.4964 13.9827 55.2018 13.5414 54.8302 13.1698C54.4586 12.7982 54.0173 12.5036 53.5317 12.3029C53.046 12.1021 52.5255 11.9992 52 12H12C11.4745 11.9992 10.954 12.1021 10.4683 12.3029C9.98267 12.5036 9.5414 12.7982 9.16981 13.1698C8.79822 13.5414 8.50361 13.9827 8.30287 14.4683C8.10213 14.954 7.99921 15.4745 8 16V40C7.99921 40.5255 8.10213 41.046 8.30287 41.5317C8.50361 42.0173 8.79822 42.4586 9.16981 42.8302C9.5414 43.2018 9.98267 43.4964 10.4683 43.6971C10.954 43.8979 11.4745 44.0008 12 44H30V48H12C9.87827 48 7.84344 47.1571 6.34315 45.6569C4.84285 44.1566 4 42.1217 4 40V16C4 13.8783 4.84285 11.8434 6.34315 10.3431C7.84344 8.84285 9.87827 8 12 8H52C54.1217 8 56.1566 8.84285 57.6569 10.3431C59.1571 11.8434 60 13.8783 60 16V40C60 42.1217 59.1571 44.1566 57.6569 45.6569C56.1566 47.1571 54.1217 48 52 48H42.33L35.472 60Z" fill="black"/>
</svg>
