<svg width="32" height="32" viewBox="0 0 32 32" fill="none" xmlns="http://www.w3.org/2000/svg">
<path d="M11.8 22.4333L16 19.9L20.2 22.4667L19.1 17.6667L22.8 14.4667L17.9333 14.0333L16 9.5L14.0667 14L9.2 14.4333L12.9 17.6667L11.8 22.4333ZM16 23.0333L10.4667 26.3667C10.2222 26.5222 9.96666 26.5889 9.7 26.5667C9.43333 26.5444 9.2 26.4556 9 26.3C8.8 26.1444 8.64444 25.9502 8.53333 25.7173C8.42222 25.4844 8.4 25.2231 8.46666 24.9333L9.93333 18.6333L5.03333 14.4C4.81111 14.2 4.67244 13.972 4.61733 13.716C4.56222 13.46 4.57866 13.2102 4.66666 12.9667C4.75466 12.7231 4.888 12.5231 5.06666 12.3667C5.24533 12.2102 5.48977 12.1102 5.8 12.0667L12.2667 11.5L14.7667 5.56667C14.8778 5.3 15.0502 5.1 15.284 4.96667C15.5178 4.83333 15.7564 4.76667 16 4.76667C16.2436 4.76667 16.4822 4.83333 16.716 4.96667C16.9498 5.1 17.1222 5.3 17.2333 5.56667L19.7333 11.5L26.2 12.0667C26.5111 12.1111 26.7556 12.2111 26.9333 12.3667C27.1111 12.5222 27.2444 12.7222 27.3333 12.9667C27.4222 13.2111 27.4391 13.4613 27.384 13.7173C27.3289 13.9733 27.1898 14.2009 26.9667 14.4L22.0667 18.6333L23.5333 24.9333C23.6 25.2222 23.5778 25.4836 23.4667 25.7173C23.3556 25.9511 23.2 26.1453 23 26.3C22.8 26.4547 22.5667 26.5436 22.3 26.5667C22.0333 26.5898 21.7778 26.5231 21.5333 26.3667L16 23.0333Z" fill="black"/>
</svg>
