<svg width="32" height="32" viewBox="0 0 32 32" fill="none" xmlns="http://www.w3.org/2000/svg">
<path fill-rule="evenodd" clip-rule="evenodd" d="M17.4133 21.4134C17.0383 21.7879 16.53 21.9983 16 21.9983C15.47 21.9983 14.9617 21.7879 14.5867 21.4134L7.04266 13.8721C6.66764 13.4969 6.45703 12.9881 6.45715 12.4576C6.45728 11.9271 6.66813 11.4184 7.04332 11.0434C7.41852 10.6684 7.92732 10.4578 8.45779 10.4579C8.98827 10.458 9.49697 10.6689 9.87199 11.0441L16 17.1721L22.128 11.0441C22.505 10.6796 23.0101 10.4777 23.5345 10.482C24.0589 10.4863 24.5607 10.6964 24.9316 11.0671C25.3026 11.4377 25.5132 11.9393 25.518 12.4637C25.5228 12.988 25.3215 13.4933 24.9573 13.8707L17.4147 21.4147L17.4133 21.4134Z" fill="black"/>
</svg>
