<svg width="32" height="32" viewBox="0 0 32 32" fill="none" xmlns="http://www.w3.org/2000/svg">
<circle cx="16" cy="16" r="10.6667" fill="#EADDFF"/>
<path d="M14.6666 9.33334H17.3333V12H14.6666V9.33334ZM14.6666 14.6667H17.3333V22.6667H14.6666V14.6667ZM16 2.66667C8.63996 2.66667 2.66663 8.64 2.66663 16C2.66663 23.36 8.63996 29.3333 16 29.3333C23.36 29.3333 29.3333 23.36 29.3333 16C29.3333 8.64 23.36 2.66667 16 2.66667ZM16 26.6667C10.12 26.6667 5.33329 21.88 5.33329 16C5.33329 10.12 10.12 5.33334 16 5.33334C21.88 5.33334 26.6666 10.12 26.6666 16C26.6666 21.88 21.88 26.6667 16 26.6667Z" fill="black"/>
</svg>
