<svg width="64" height="64" viewBox="0 0 64 64" fill="none" xmlns="http://www.w3.org/2000/svg">
<path d="M28.8666 58.6666C27.6666 58.6666 26.6337 58.2666 25.7679 57.4666C24.9022 56.6666 24.3795 55.6889 24.1999 54.5333L23.5999 50.1333C23.0222 49.9111 22.4782 49.6444 21.9679 49.3333C21.4577 49.0222 20.9573 48.6889 20.4666 48.3333L16.3333 50.0666C15.2222 50.5555 14.1111 50.6 12.9999 50.2C11.8888 49.8 11.0222 49.0889 10.3999 48.0666L7.26661 42.6C6.64439 41.5778 6.46661 40.4889 6.73328 39.3333C6.99995 38.1778 7.59995 37.2222 8.53328 36.4666L12.0666 33.8C12.0222 33.4889 11.9999 33.1884 11.9999 32.8986V31.0986C11.9999 30.8106 12.0222 30.5111 12.0666 30.2L8.53328 27.5333C7.59995 26.7778 6.99995 25.8222 6.73328 24.6666C6.46661 23.5111 6.64439 22.4222 7.26661 21.4L10.3999 15.9333C11.0222 14.9111 11.8888 14.2 12.9999 13.8C14.1111 13.4 15.2222 13.4444 16.3333 13.9333L20.4666 15.6666C20.9555 15.3111 21.4666 14.9778 21.9999 14.6666C22.5333 14.3555 23.0666 14.0889 23.5999 13.8666L24.1999 9.46665C24.3777 8.31109 24.9004 7.33331 25.7679 6.53331C26.6355 5.73331 27.6684 5.33331 28.8666 5.33331H35.1333C36.3333 5.33331 37.3671 5.73331 38.2346 6.53331C39.1022 7.33331 39.6239 8.31109 39.7999 9.46665L40.3999 13.8666C40.9777 14.0889 41.5226 14.3555 42.0346 14.6666C42.5466 14.9778 43.0462 15.3111 43.5333 15.6666L47.6666 13.9333C48.7777 13.4444 49.8888 13.4 50.9999 13.8C52.1111 14.2 52.9777 14.9111 53.5999 15.9333L56.7333 21.4C57.3555 22.4222 57.5333 23.5111 57.2666 24.6666C56.9999 25.8222 56.3999 26.7778 55.4666 27.5333L51.9333 30.2C51.9777 30.5111 51.9999 30.8115 51.9999 31.1013V32.8986C51.9999 33.1884 51.9555 33.4889 51.8666 33.8L55.3999 36.4666C56.3333 37.2222 56.9333 38.1778 57.1999 39.3333C57.4666 40.4889 57.2888 41.5778 56.6666 42.6L53.4666 48.0666C52.8444 49.0889 51.9777 49.8 50.8666 50.2C49.7555 50.6 48.6444 50.5555 47.5333 50.0666L43.5333 48.3333C43.0444 48.6889 42.5333 49.0222 41.9999 49.3333C41.4666 49.6444 40.9333 49.9111 40.3999 50.1333L39.7999 54.5333C39.6222 55.6889 39.1004 56.6666 38.2346 57.4666C37.3688 58.2666 36.3351 58.6666 35.1333 58.6666H28.8666ZM29.3333 53.3333H34.5999L35.5333 46.2666C36.9111 45.9111 38.1893 45.3893 39.3679 44.7013C40.5466 44.0133 41.6239 43.1795 42.5999 42.2L49.1999 44.9333L51.7999 40.4L46.0666 36.0666C46.2888 35.4444 46.4444 34.7893 46.5333 34.1013C46.6222 33.4133 46.6666 32.7129 46.6666 32C46.6666 31.2871 46.6222 30.5875 46.5333 29.9013C46.4444 29.2151 46.2888 28.5591 46.0666 27.9333L51.7999 23.6L49.1999 19.0666L42.5999 21.8666C41.6222 20.8444 40.5448 19.9893 39.3679 19.3013C38.1911 18.6133 36.9128 18.0906 35.5333 17.7333L34.6666 10.6666H29.3999L28.4666 17.7333C27.0888 18.0889 25.8115 18.6115 24.6346 19.3013C23.4577 19.9911 22.3795 20.824 21.3999 21.8L14.7999 19.0666L12.1999 23.6L17.9333 27.8666C17.7111 28.5333 17.5555 29.2 17.4666 29.8666C17.3777 30.5333 17.3333 31.2444 17.3333 32C17.3333 32.7111 17.3777 33.4 17.4666 34.0666C17.5555 34.7333 17.7111 35.4 17.9333 36.0666L12.1999 40.4L14.7999 44.9333L21.3999 42.1333C22.3777 43.1555 23.4559 44.0115 24.6346 44.7013C25.8133 45.3911 27.0906 45.9129 28.4666 46.2666L29.3333 53.3333ZM32.1333 41.3333C34.7111 41.3333 36.9111 40.4222 38.7333 38.6C40.5555 36.7778 41.4666 34.5778 41.4666 32C41.4666 29.4222 40.5555 27.2222 38.7333 25.4C36.9111 23.5778 34.7111 22.6666 32.1333 22.6666C29.5111 22.6666 27.3004 23.5778 25.5013 25.4C23.7022 27.2222 22.8017 29.4222 22.7999 32C22.7982 34.5778 23.6986 36.7778 25.5013 38.6C27.3039 40.4222 29.5146 41.3333 32.1333 41.3333Z" fill="black"/>
</svg>
