<svg width="32" height="32" viewBox="0 0 32 32" fill="none" xmlns="http://www.w3.org/2000/svg">
<path fill-rule="evenodd" clip-rule="evenodd" d="M14.5866 10.5866C14.9616 10.2121 15.47 10.0017 16 10.0017C16.53 10.0017 17.0383 10.2121 17.4133 10.5866L24.9573 18.1279C25.143 18.3137 25.2903 18.5343 25.3907 18.777C25.4912 19.0196 25.5429 19.2798 25.5428 19.5424C25.5427 19.8051 25.4909 20.0652 25.3904 20.3078C25.2898 20.5505 25.1424 20.7709 24.9566 20.9566C24.7709 21.1423 24.5503 21.2896 24.3076 21.39C24.0649 21.4905 23.8048 21.5422 23.5422 21.5421C23.2795 21.5421 23.0194 21.4903 22.7768 21.3897C22.5341 21.2891 22.3137 21.1417 22.128 20.9559L16 14.8293L9.87196 20.9573C9.68756 21.1484 9.46694 21.3009 9.22298 21.4058C8.97902 21.5107 8.71661 21.566 8.45106 21.5684C8.1855 21.5709 7.92212 21.5204 7.67628 21.42C7.43044 21.3195 7.20707 21.1711 7.01919 20.9834C6.83132 20.7957 6.68271 20.5725 6.58203 20.3267C6.48135 20.081 6.43063 19.8177 6.43281 19.5521C6.43499 19.2865 6.49004 19.0241 6.59474 18.78C6.69944 18.536 6.8517 18.3152 7.04263 18.1306L14.5866 10.5866Z" fill="black"/>
</svg>
